<?xml version="1.0" standalone="no"?>
<!DOCTYPE svg PUBLIC "-//W3C//DTD SVG 20010904//EN"
 "http://www.w3.org/TR/2001/REC-SVG-20010904/DTD/svg10.dtd">
<svg version="1.0" xmlns="http://www.w3.org/2000/svg"
 width="618.000000pt" height="360.000000pt" viewBox="0 0 618.000000 360.000000"
 preserveAspectRatio="xMidYMid meet">

<g transform="translate(0.000000,360.000000) scale(0.100000,-0.100000)"
fill="#000000" stroke="none">
<path d="M3193 3109 c-202 -35 -336 -166 -366 -359 -35 -230 100 -420 340
-476 119 -28 279 2 411 77 l52 30 0 79 c0 43 -4 81 -8 84 -5 3 -18 -15 -30
-40 -32 -65 -106 -140 -170 -171 -75 -37 -173 -37 -247 -2 -177 84 -254 349
-158 546 78 158 269 231 417 159 61 -30 123 -99 133 -148 11 -57 23 -25 23 61
l0 88 -57 26 c-96 42 -246 63 -340 46z"/>
<path d="M4120 3110 c-178 -32 -315 -145 -355 -293 -26 -97 -18 -232 19 -314
68 -150 260 -254 441 -240 77 6 205 47 278 90 l47 28 0 84 c0 47 -4 85 -8 85
-4 0 -14 -16 -21 -36 -20 -55 -122 -158 -183 -185 -110 -48 -242 -22 -326 64
-80 83 -117 190 -110 320 9 155 73 258 194 318 155 76 324 20 390 -129 10 -23
22 -42 26 -42 5 0 7 39 6 87 -3 85 -4 87 -34 105 -72 42 -274 74 -364 58z"/>
<path d="M1311 3094 c-144 -31 -266 -125 -312 -239 -20 -50 -23 -78 -23 -170
0 -92 3 -120 23 -170 45 -113 161 -202 313 -241 107 -28 287 -6 398 49 l45 22
5 118 c4 102 8 121 24 133 11 8 28 14 38 14 10 0 18 7 18 15 0 13 -23 15 -150
15 -127 0 -150 -2 -150 -15 0 -8 9 -15 20 -15 11 0 29 -9 40 -20 19 -19 20
-31 18 -128 l-3 -107 -39 -19 c-61 -30 -168 -33 -236 -7 -238 90 -296 457
-103 643 62 60 123 83 223 83 75 0 91 -3 131 -27 56 -33 95 -77 121 -136 11
-23 23 -40 29 -37 5 4 9 44 9 90 0 77 -2 86 -22 99 -36 22 -116 44 -201 56
-99 13 -136 12 -216 -6z"/>
<path d="M1912 3093 c-17 -6 -5 -23 17 -23 9 0 26 -6 37 -14 18 -13 19 -32 24
-283 5 -263 5 -269 31 -324 112 -239 474 -262 614 -38 48 74 55 125 55 376 l0
234 25 24 c13 14 33 25 45 25 24 0 27 15 4 24 -24 9 -197 7 -213 -3 -15 -10
-8 -15 31 -25 15 -3 32 -14 37 -24 5 -9 11 -134 12 -277 4 -259 4 -260 -21
-310 -29 -59 -89 -121 -136 -141 -47 -20 -141 -17 -189 5 -52 23 -103 74 -126
126 -17 36 -19 70 -19 313 0 259 1 273 20 292 11 11 29 20 40 20 24 0 27 15 4
24 -19 7 -273 7 -292 -1z"/>
<path d="M4663 3094 c-19 -8 -16 -24 5 -24 10 0 28 -7 40 -16 l22 -15 0 -348
c0 -319 -1 -349 -17 -363 -10 -9 -27 -18 -38 -20 -11 -2 -20 -10 -20 -18 0
-12 25 -15 145 -18 159 -3 179 0 160 23 -7 8 -21 15 -31 15 -10 0 -25 10 -33
22 -14 19 -16 71 -16 360 0 325 1 339 20 358 11 11 29 20 41 20 12 0 19 5 17
13 -4 9 -43 13 -144 14 -76 1 -145 -1 -151 -3z"/>
<path d="M2435 1984 c-302 -49 -532 -254 -605 -540 -25 -96 -27 -251 -4 -343
38 -155 145 -318 267 -405 219 -156 476 -187 723 -85 28 11 38 10 80 -8 67
-29 190 -53 269 -53 256 0 514 155 634 379 61 115 76 182 76 336 0 127 -3 148
-29 228 -75 230 -266 408 -506 473 -97 26 -263 24 -364 -4 -43 -13 -90 -29
-105 -36 -22 -12 -30 -12 -52 0 -80 41 -290 73 -384 58z m228 -155 l37 -10
-29 -25 c-67 -56 -169 -219 -196 -311 -6 -22 -4 -23 67 -23 l74 0 28 58 c37
76 96 152 153 196 37 29 49 33 65 25 44 -24 139 -135 175 -205 l38 -74 73 0
c71 0 73 1 66 23 -29 97 -128 255 -195 311 l-29 25 42 12 c65 18 213 15 282
-5 203 -60 360 -221 411 -421 19 -75 19 -192 0 -273 -67 -285 -364 -483 -650
-433 -38 7 -72 14 -77 17 -4 3 8 19 28 36 43 38 112 134 148 206 28 56 66 187
66 229 l0 23 -170 0 -170 0 0 -70 0 -70 86 0 85 0 -38 -72 c-38 -73 -158 -208
-185 -208 -40 0 -177 161 -216 253 l-12 27 85 0 85 0 0 70 0 70 -170 0 -170 0
0 -28 c0 -49 40 -174 81 -254 23 -42 67 -106 100 -142 32 -35 59 -66 59 -69 0
-3 -32 -11 -72 -17 -291 -49 -577 139 -653 431 -23 86 -16 240 14 323 73 205
252 353 465 386 57 9 161 4 219 -11z"/>
</g>
</svg>
