<?xml version="1.0" standalone="no"?>
<!DOCTYPE svg PUBLIC "-//W3C//DTD SVG 20010904//EN"
 "http://www.w3.org/TR/2001/REC-SVG-20010904/DTD/svg10.dtd">
<svg version="1.0" xmlns="http://www.w3.org/2000/svg"
 width="550.000000pt" height="268.000000pt" viewBox="0 0 550.000000 268.000000"
 preserveAspectRatio="xMidYMid meet">

<g transform="translate(0.000000,268.000000) scale(0.100000,-0.100000)"
fill="#000000" stroke="none">
<path d="M0 1340 l0 -1340 2750 0 2750 0 0 1340 0 1340 -2750 0 -2750 0 0
-1340z m1945 147 c35 -20 40 -28 43 -62 l3 -40 -23 34 c-54 80 -135 99 -188
45 -87 -87 -47 -284 57 -284 75 0 119 50 95 112 l-10 28 45 0 c36 0 43 -3 35
-13 -6 -7 -12 -32 -14 -57 -3 -40 -7 -47 -43 -68 -54 -31 -154 -28 -203 7
-110 78 -87 267 38 314 39 14 126 6 165 -16z m1026 1 c39 -22 54 -49 47 -85
-2 -14 -8 -9 -25 19 -39 66 -127 91 -180 52 -17 -13 -35 -41 -46 -75 -16 -46
-17 -61 -7 -106 28 -128 138 -153 230 -53 l36 39 -4 -30 c-10 -66 -126 -109
-215 -80 -71 24 -127 120 -113 194 8 45 43 96 85 124 47 32 137 32 192 1z
m547 -6 c24 -18 32 -31 32 -54 l0 -32 -36 42 c-40 47 -96 68 -136 53 -129 -49
-105 -311 28 -311 46 0 102 31 132 73 14 21 22 26 22 15 0 -90 -135 -138 -240
-85 -64 32 -92 83 -88 163 4 71 34 119 90 148 49 25 153 18 196 -12z m-1246
-113 c-3 -124 -2 -133 19 -155 28 -30 77 -39 124 -24 60 20 67 41 63 185 -2
106 -1 125 12 125 13 0 14 -19 10 -134 -6 -146 -12 -161 -72 -192 -65 -34
-184 -3 -206 53 -6 15 -13 83 -14 151 l-3 122 35 0 35 0 -3 -131z m1543 -39
l0 -170 -30 0 -30 0 3 156 c2 110 0 159 -9 170 -10 12 -5 14 27 14 l39 0 0
-170z"/>
</g>
</svg>
